<svg width="44" height="44" viewBox="0 0 44 44" fill="none" xmlns="http://www.w3.org/2000/svg">
<path d="M40.3749 32.6242L35.8749 25.75V25.6258L43.2507 22L35.8749 18.3742V18.25L40.3749 11.3758L32.1249 11.875L32.6242 3.62501L25.75 8.12501H25.6257L21.9999 0.749207L18.3741 8.12501H18.2499L11.3757 3.62501L11.8749 11.875L3.62495 11.3758L8.12495 18.25V18.3742L0.749146 22L8.12495 25.6258V25.75L3.62495 32.6242L11.8749 32.125L11.3757 40.375L18.2499 35.875H18.3741L21.9999 43.2508L25.6257 35.875H25.75L32.6242 40.375L32.1249 32.125L40.3749 32.6242ZM21.9999 32.0008C16.4991 32.0008 11.9991 27.5008 11.9991 22C11.9991 16.4992 16.4991 11.9992 21.9999 11.9992C27.5007 11.9992 32.0007 16.4992 32.0007 22C32.0007 27.5008 27.5007 32.0008 21.9999 32.0008Z" fill="#F57059"/>
<path d="M22 14.5C17.875 14.5 14.5 17.875 14.5 22C14.5 26.125 17.875 29.5 22 29.5C26.125 29.5 29.5 26.125 29.5 22C29.5 17.875 26.125 14.5 22 14.5Z" fill="#F57059"/>
</svg>
